<svg width="18" height="18" viewBox="0 0 18 18" fill="none" xmlns="http://www.w3.org/2000/svg">
<path d="M9 18C13.9706 18 18 13.9706 18 9C18 4.02944 13.9706 0 9 0C4.02944 0 0 4.02944 0 9C0 13.9706 4.02944 18 9 18Z" fill="#3C5A9A"/>
<path d="M11.9264 2.76253H9.9327C8.74955 2.76253 7.43357 3.26014 7.43357 4.97515C7.43934 5.57273 7.43357 6.14503 7.43357 6.78912H6.06483V8.96718H7.47592V15.2374H10.0689V8.9258H11.7803L11.9352 6.78301H10.0242C10.0242 6.78301 10.0285 5.8298 10.0242 5.55299C10.0242 4.87525 10.7294 4.91406 10.7718 4.91406C11.1074 4.91406 11.7599 4.91504 11.9274 4.91406V2.76253H11.9264V2.76253Z" fill="white"/>
</svg>
