<svg width="19" height="17" viewBox="0 0 19 17" fill="none" xmlns="http://www.w3.org/2000/svg">
<path fill-rule="evenodd" clip-rule="evenodd" d="M4.5 2.5C4.5 1.39543 5.39543 0.5 6.5 0.5H10.5C11.6046 0.5 12.5 1.39543 12.5 2.5C12.5 3.05228 12.9477 3.5 13.5 3.5H14.5C16.7091 3.5 18.5 5.29086 18.5 7.5V12.5C18.5 14.7091 16.7091 16.5 14.5 16.5H4.5C2.29086 16.5 0.5 14.7091 0.5 12.5V7.5C0.5 5.63252 1.77976 4.06394 3.51012 3.62343C4.04533 3.48717 4.5 3.05228 4.5 2.5ZM9 13.5C10.933 13.5 12.5 11.933 12.5 10C12.5 8.067 10.933 6.5 9 6.5C7.067 6.5 5.5 8.067 5.5 10C5.5 11.933 7.067 13.5 9 13.5Z" fill="white"/>
<path d="M3.51012 3.62343L3.38676 3.13888L3.51012 3.62343ZM6.5 0C5.11929 0 4 1.11929 4 2.5H5C5 1.67157 5.67157 1 6.5 1V0ZM10.5 0H6.5V1H10.5V0ZM13 2.5C13 1.11929 11.8807 0 10.5 0V1C11.3284 1 12 1.67157 12 2.5H13ZM13.5 3C13.2239 3 13 2.77614 13 2.5H12C12 3.32843 12.6716 4 13.5 4V3ZM14.5 3H13.5V4H14.5V3ZM19 7.5C19 5.01472 16.9853 3 14.5 3V4C16.433 4 18 5.567 18 7.5H19ZM19 12.5V7.5H18V12.5H19ZM14.5 17C16.9853 17 19 14.9853 19 12.5H18C18 14.433 16.433 16 14.5 16V17ZM4.5 17H14.5V16H4.5V17ZM0 12.5C0 14.9853 2.01472 17 4.5 17V16C2.567 16 1 14.433 1 12.5H0ZM0 7.5V12.5H1V7.5H0ZM3.38676 3.13888C1.4402 3.63444 0 5.3984 0 7.5H1C1 5.86663 2.11932 4.49344 3.63347 4.10797L3.38676 3.13888ZM4 2.5C4 2.75456 3.77529 3.03997 3.38676 3.13888L3.63347 4.10797C4.31537 3.93437 5 3.35001 5 2.5H4ZM12 10C12 11.6569 10.6569 13 9 13V14C11.2091 14 13 12.2091 13 10H12ZM9 7C10.6569 7 12 8.34315 12 10H13C13 7.79086 11.2091 6 9 6V7ZM6 10C6 8.34315 7.34315 7 9 7V6C6.79086 6 5 7.79086 5 10H6ZM9 13C7.34315 13 6 11.6569 6 10H5C5 12.2091 6.79086 14 9 14V13Z" fill="white"/>
</svg>
