<svg width="15" height="15" viewBox="0 0 15 15" fill="none" xmlns="http://www.w3.org/2000/svg">
<path d="M15 7.5C15 11.6421 11.6421 15 7.5 15C3.35833 15 0 11.6421 0 7.5C0 3.35833 3.35833 0 7.5 0C11.6421 0 15 3.35833 15 7.5Z" fill="#FFCC4D"/>
<path d="M11.8568 7.41562C11.8318 7.35937 11.2322 6.04187 9.99972 6.04187C8.76763 6.04187 8.16763 7.35937 8.14263 7.41562C8.1043 7.50187 8.1293 7.6027 8.20305 7.66187C8.27597 7.72104 8.38055 7.72312 8.45722 7.6677C8.46222 7.66395 8.98305 7.29187 9.99972 7.29187C11.0105 7.29187 11.5305 7.65895 11.5422 7.66729C11.5789 7.69479 11.623 7.70854 11.6664 7.70854C11.7122 7.70854 11.7585 7.69312 11.7964 7.66312C11.8701 7.60395 11.8955 7.50229 11.8568 7.41562V7.41562ZM6.8568 7.41562C6.8318 7.35937 6.23222 6.04187 4.99972 6.04187C3.76763 6.04187 3.16763 7.35937 3.14263 7.41562C3.1043 7.50187 3.1293 7.6027 3.20263 7.66187C3.27597 7.72104 3.38055 7.72312 3.4568 7.6677C3.46222 7.66395 3.98263 7.29187 4.99972 7.29187C6.01055 7.29187 6.53055 7.65895 6.54222 7.66729C6.57888 7.69479 6.62305 7.70854 6.66638 7.70854C6.71222 7.70854 6.75847 7.69312 6.79638 7.66312C6.87055 7.60395 6.89513 7.50229 6.8568 7.41562V7.41562ZM7.49972 9.16687C5.99013 9.16687 4.98847 8.99104 3.74972 8.7502C3.4668 8.69562 2.91638 8.7502 2.91638 9.58354C2.91638 11.2502 4.83097 13.3335 7.49972 13.3335C10.168 13.3335 12.083 11.2502 12.083 9.58354C12.083 8.7502 11.5326 8.6952 11.2497 8.7502C10.011 8.99104 9.0093 9.16687 7.49972 9.16687Z" fill="#664500"/>
<path d="M3.75 9.58337C3.75 9.58337 5 10 7.5 10C10 10 11.25 9.58337 11.25 9.58337C11.25 9.58337 10.4167 11.25 7.5 11.25C4.58333 11.25 3.75 9.58337 3.75 9.58337Z" fill="white"/>
<path d="M14.583 4.58354C14.583 5.73437 13.6505 6.66687 12.4997 6.66687C11.3489 6.66687 10.4164 5.73437 10.4164 4.58354C10.4164 3.4327 12.083 0.41687 12.4997 0.41687C12.9164 0.41687 14.583 3.4327 14.583 4.58354Z" fill="#5DADEC"/>
</svg>
