<svg width="19" height="19" viewBox="0 0 19 19" fill="none" xmlns="http://www.w3.org/2000/svg">
<circle cx="9.5" cy="9.5" r="9.24324" fill="#F55F9A"/>
<path fill-rule="evenodd" clip-rule="evenodd" d="M15.8766 4.5243C14.3763 6.00024 12.6085 7.20501 10.6524 8.0592C10.9231 8.59955 11.1793 9.14839 11.4206 9.7052C12.1076 9.57056 12.8175 9.5 13.5439 9.5C14.9588 9.5 16.3111 9.7677 17.553 10.2552C17.5761 10.0066 17.5878 9.75466 17.5878 9.5C17.5878 7.62361 16.9489 5.89647 15.8766 4.5243ZM15.1015 3.66594C13.6746 5.07824 11.9861 6.2268 10.1153 7.03246C9.12518 5.2187 7.96945 3.50833 6.66842 1.92169C7.54969 1.59227 8.50381 1.41216 9.5 1.41216C11.6742 1.41216 13.6481 2.27011 15.1015 3.66594ZM9.02859 7.45438C8.04059 5.66452 6.88496 3.98011 5.58289 2.42234C3.45836 3.60066 1.92025 5.70779 1.51683 8.19541C2.23817 8.29378 2.97464 8.34459 3.72297 8.34459C5.58136 8.34459 7.36656 8.0312 9.02859 7.45438ZM9.5 0.256757C8.21454 0.256757 6.99037 0.519159 5.87813 0.993322C5.50951 1.15047 5.15318 1.33088 4.81099 1.5327C4.23226 1.87404 3.69397 2.27663 3.20504 2.73157C2.68068 3.21947 2.21309 3.76757 1.81327 4.36487C1.28108 5.15992 0.868961 6.04215 0.602867 6.98559C0.509667 7.31604 0.43438 7.654 0.378122 7.99835C0.378121 7.99835 0.37812 7.99835 0.378118 7.99835C0.316332 8.37654 0.277497 8.76245 0.263091 9.1546C0.261424 9.19997 0.260085 9.24542 0.259074 9.29095C0.257532 9.36045 0.256757 9.43013 0.256757 9.5C0.256757 12.2431 1.45169 14.7072 3.34943 16.4C3.65014 16.6682 3.96849 16.9171 4.30253 17.1446C5.78353 18.1535 7.57289 18.7432 9.5 18.7432C10.6013 18.7432 11.6576 18.5506 12.6371 18.1973C13.0148 18.061 13.381 17.9009 13.734 17.7187C16.0049 16.5464 17.7276 14.4605 18.4158 11.9471C18.5215 11.5614 18.6027 11.1657 18.6579 10.7616C18.7142 10.3491 18.7432 9.92795 18.7432 9.5C18.7432 7.29374 17.9703 5.26802 16.6804 3.67887C16.436 3.37783 16.1731 3.09245 15.8934 2.82448C14.2331 1.23399 11.9807 0.256757 9.5 0.256757ZM17.3577 11.4234C16.8271 13.5986 15.4169 15.429 13.5253 16.5166C13.1445 14.5416 12.5873 12.6296 11.8707 10.7974C12.4145 10.704 12.9735 10.6554 13.5439 10.6554C14.8965 10.6554 16.1852 10.9288 17.3577 11.4234ZM12.4467 17.0343C12.0687 14.9672 11.4906 12.97 10.7334 11.0635C8.12681 11.8406 5.97424 13.6709 4.76925 16.0607C6.0995 17.0216 7.73362 17.5878 9.5 17.5878C10.5397 17.5878 11.5336 17.3916 12.4467 17.0343ZM3.86265 15.2994C5.2113 12.7826 7.51272 10.8527 10.2848 9.99196C10.0607 9.48331 9.82374 8.98166 9.57422 8.4874C7.74635 9.1429 5.77637 9.5 3.72297 9.5C2.93996 9.5 2.16907 9.44807 1.41357 9.34748C1.41264 9.3982 1.41216 9.44905 1.41216 9.5C1.41216 11.7746 2.35115 13.8299 3.86265 15.2994Z" fill="#C42562"/>
<path d="M10.6524 8.0592L10.5497 7.8239C10.4851 7.85209 10.435 7.90556 10.411 7.9718C10.387 8.03803 10.3913 8.11121 10.4229 8.17419L10.6524 8.0592ZM15.8766 4.5243L16.0789 4.3662C16.0339 4.30854 15.9664 4.27285 15.8933 4.26808C15.8203 4.26332 15.7487 4.28994 15.6966 4.34126L15.8766 4.5243ZM11.4206 9.7052L11.1851 9.8073C11.233 9.91801 11.3516 9.98037 11.47 9.95716L11.4206 9.7052ZM17.553 10.2552L17.4592 10.4942C17.5344 10.5237 17.619 10.5161 17.6877 10.4738C17.7565 10.4315 17.8013 10.3593 17.8087 10.2789L17.553 10.2552ZM10.1153 7.03246L9.8899 7.15548C9.95341 7.27184 10.0951 7.32071 10.2168 7.26828L10.1153 7.03246ZM15.1015 3.66594L15.2821 3.84842C15.3313 3.79973 15.3588 3.73323 15.3583 3.664C15.3577 3.59478 15.3293 3.5287 15.2794 3.48075L15.1015 3.66594ZM6.66842 1.92169L6.57852 1.68119C6.5009 1.7102 6.44205 1.7749 6.4205 1.85491C6.39895 1.93492 6.41733 2.02042 6.46988 2.0845L6.66842 1.92169ZM5.58289 2.42234L5.77989 2.25767C5.70093 2.1632 5.56603 2.13809 5.45836 2.1978L5.58289 2.42234ZM9.02859 7.45438L9.11278 7.69695C9.1843 7.67213 9.24122 7.61701 9.26833 7.54632C9.29544 7.47563 9.28997 7.39658 9.25338 7.3303L9.02859 7.45438ZM1.51683 8.19541L1.26339 8.15431C1.25231 8.22263 1.26928 8.29254 1.31047 8.34817C1.35165 8.40381 1.41356 8.44046 1.48214 8.44981L1.51683 8.19541ZM5.87813 0.993322L5.77744 0.757133L5.77743 0.757133L5.87813 0.993322ZM4.81099 1.5327L4.68055 1.31155V1.31155L4.81099 1.5327ZM3.20504 2.73157L3.03014 2.5436L3.20504 2.73157ZM1.81327 4.36487L1.5999 4.22204L1.81327 4.36487ZM0.602867 6.98559L0.849983 7.05529L0.602867 6.98559ZM0.378122 7.99835V8.25511C0.503946 8.25511 0.611232 8.16393 0.63152 8.03975L0.378122 7.99835ZM0.378118 7.99835V7.74159C0.252294 7.74159 0.145008 7.83277 0.124721 7.95695L0.378118 7.99835ZM0.263091 9.1546L0.00650716 9.14517H0.00650714L0.263091 9.1546ZM0.259074 9.29095L0.515768 9.29665L0.259074 9.29095ZM3.34943 16.4L3.52034 16.2084L3.34943 16.4ZM4.30253 17.1446L4.44708 16.9324L4.30253 17.1446ZM12.6371 18.1973L12.55 17.9557H12.55L12.6371 18.1973ZM13.734 17.7187L13.6162 17.4905H13.6162L13.734 17.7187ZM18.4158 11.9471L18.6635 12.0149L18.4158 11.9471ZM18.6579 10.7616L18.4035 10.7269V10.7269L18.6579 10.7616ZM16.6804 3.67887L16.481 3.84069V3.84069L16.6804 3.67887ZM15.8934 2.82448L16.071 2.63907L15.8934 2.82448ZM13.5253 16.5166L13.2732 16.5652C13.2889 16.6466 13.343 16.7155 13.4184 16.75C13.4939 16.7846 13.5813 16.7805 13.6533 16.7392L13.5253 16.5166ZM17.3577 11.4234L17.6072 11.4843C17.637 11.3618 17.5736 11.2358 17.4575 11.1868L17.3577 11.4234ZM11.8707 10.7974L11.8273 10.5443C11.7512 10.5574 11.6851 10.6039 11.6471 10.6711C11.6092 10.7383 11.6035 10.819 11.6316 10.8909L11.8707 10.7974ZM10.7334 11.0635L10.972 10.9687C10.9229 10.8451 10.7875 10.7794 10.66 10.8174L10.7334 11.0635ZM12.4467 17.0343L12.5403 17.2733C12.6548 17.2286 12.7214 17.1089 12.6993 16.9881L12.4467 17.0343ZM4.76925 16.0607L4.53999 15.9451C4.48319 16.0577 4.51664 16.195 4.61891 16.2688L4.76925 16.0607ZM10.2848 9.99196L10.3609 10.2372C10.4308 10.2155 10.4881 10.165 10.5184 10.0984C10.5487 10.0318 10.5492 9.95543 10.5197 9.88847L10.2848 9.99196ZM3.86265 15.2994L3.68367 15.4835C3.74147 15.5397 3.82231 15.5655 3.90198 15.5532C3.98164 15.5408 4.05088 15.4918 4.08896 15.4207L3.86265 15.2994ZM9.57422 8.4874L9.80343 8.37169C9.74502 8.256 9.60955 8.20197 9.48755 8.24572L9.57422 8.4874ZM1.41357 9.34748L1.44746 9.09297C1.37492 9.08331 1.30171 9.10506 1.24621 9.15276C1.19072 9.20046 1.15821 9.26957 1.15686 9.34274L1.41357 9.34748ZM10.7552 8.2945C12.7404 7.42758 14.5343 6.20497 16.0567 4.70733L15.6966 4.34126C14.2183 5.79551 12.4766 6.98244 10.5497 7.8239L10.7552 8.2945ZM11.6562 9.60311C11.413 9.04193 11.1548 8.48879 10.882 7.94421L10.4229 8.17419C10.6914 8.71032 10.9457 9.25485 11.1851 9.8073L11.6562 9.60311ZM13.5439 9.24324C12.8009 9.24324 12.0744 9.31542 11.3713 9.45324L11.47 9.95716C12.1408 9.82569 12.8342 9.75676 13.5439 9.75676V9.24324ZM17.6469 10.0162C16.3755 9.51715 14.9914 9.24324 13.5439 9.24324V9.75676C14.9262 9.75676 16.2467 10.0182 17.4592 10.4942L17.6469 10.0162ZM17.3311 9.5C17.3311 9.74674 17.3197 9.99074 17.2974 10.2315L17.8087 10.2789C17.8325 10.0224 17.8446 9.76258 17.8446 9.5H17.3311ZM15.6743 4.68239C16.7125 6.01102 17.3311 7.68291 17.3311 9.5H17.8446C17.8446 7.56431 17.1852 5.78192 16.0789 4.3662L15.6743 4.68239ZM10.2168 7.26828C12.1175 6.44975 13.8327 5.28297 15.2821 3.84842L14.9209 3.48345C13.5164 4.87351 11.8547 6.00384 10.0137 6.79664L10.2168 7.26828ZM6.46988 2.0845C7.76082 3.65883 8.90755 5.35589 9.8899 7.15548L10.3406 6.90944C9.34281 5.08151 8.17809 3.35783 6.86696 1.75889L6.46988 2.0845ZM9.5 1.15541C8.47265 1.15541 7.48811 1.34118 6.57852 1.68119L6.75832 2.1622C7.61127 1.84336 8.53497 1.66892 9.5 1.66892V1.15541ZM15.2794 3.48075C13.7801 2.04085 11.7432 1.15541 9.5 1.15541V1.66892C11.6053 1.66892 13.5162 2.49938 14.9237 3.85112L15.2794 3.48075ZM5.38589 2.587C6.6775 4.13226 7.8238 5.80309 8.80381 7.57847L9.25338 7.3303C8.25738 5.52595 7.09242 3.82796 5.77989 2.25767L5.38589 2.587ZM1.77028 8.23651C2.16076 5.82865 3.64983 3.78807 5.70742 2.64687L5.45836 2.1978C3.2669 3.41325 1.67973 5.58693 1.26339 8.15431L1.77028 8.23651ZM3.72297 8.08784C2.98628 8.08784 2.2614 8.03781 1.55153 7.94101L1.48214 8.44981C2.21494 8.54975 2.963 8.60135 3.72297 8.60135V8.08784ZM8.94441 7.21182C7.30909 7.77937 5.55232 8.08784 3.72297 8.08784V8.60135C5.61041 8.60135 7.42404 8.28303 9.11278 7.69695L8.94441 7.21182ZM5.97882 1.22951C7.05981 0.768672 8.24977 0.513514 9.5 0.513514V0C8.17931 0 6.92093 0.269646 5.77744 0.757133L5.97882 1.22951ZM4.94143 1.75386C5.27411 1.55764 5.6205 1.38227 5.97882 1.22951L5.77743 0.757133C5.39851 0.918673 5.03225 1.10411 4.68055 1.31155L4.94143 1.75386ZM4.68055 1.31155C4.08574 1.66237 3.53256 2.07611 3.03014 2.5436L3.37994 2.91954C3.85538 2.47716 4.37878 2.08571 4.94143 1.75386L4.68055 1.31155ZM3.03014 2.5436C2.49131 3.04495 2.0108 3.60819 1.5999 4.22204L2.02664 4.50769C2.41538 3.92694 2.87005 3.39398 3.37994 2.91954L3.03014 2.5436ZM1.5999 4.22204C1.05295 5.03915 0.629306 5.94599 0.355751 6.9159L0.849983 7.05529C1.10861 6.1383 1.5092 5.28069 2.02664 4.50769L1.5999 4.22204ZM0.355751 6.9159C0.259941 7.2556 0.182551 7.603 0.124725 7.95695L0.63152 8.03975C0.68621 7.70499 0.759393 7.37648 0.849983 7.05529L0.355751 6.9159ZM0.378122 7.74159C0.394209 7.74159 0.408305 7.74311 0.419849 7.74501C0.431315 7.7469 0.44086 7.74927 0.44789 7.75126C0.454871 7.75323 0.46039 7.75511 0.463575 7.75623C0.466512 7.75727 0.469014 7.75822 0.468583 7.75806C0.468583 7.75806 0.468583 7.75806 0.468582 7.75806C0.468582 7.75806 0.46858 7.75806 0.468579 7.75806C0.468575 7.75806 0.46857 7.75805 0.468564 7.75805C0.468552 7.75805 0.468531 7.75804 0.468506 7.75803C0.468456 7.75801 0.468375 7.75798 0.468274 7.75794C0.468076 7.75787 0.467748 7.75775 0.467342 7.75759C0.466549 7.7573 0.465224 7.75681 0.463574 7.75623C0.460389 7.75511 0.454869 7.75323 0.447888 7.75125C0.440858 7.74927 0.431313 7.7469 0.419846 7.74501C0.408302 7.74311 0.394206 7.74159 0.378118 7.74159V8.25511C0.362032 8.25511 0.347935 8.25359 0.336392 8.25169C0.324926 8.24981 0.31538 8.24743 0.308351 8.24545C0.30137 8.24348 0.29585 8.24159 0.292666 8.24047C0.289728 8.23943 0.287227 8.23848 0.287657 8.23864C0.287657 8.23864 0.287658 8.23864 0.287658 8.23864C0.287659 8.23864 0.287661 8.23864 0.287662 8.23865C0.287665 8.23865 0.28767 8.23865 0.287677 8.23865C0.287689 8.23866 0.287709 8.23866 0.287735 8.23867C0.287784 8.23869 0.287866 8.23872 0.287967 8.23876C0.288165 8.23883 0.288493 8.23896 0.288899 8.23911C0.289691 8.2394 0.291017 8.23989 0.292667 8.24047C0.295852 8.24159 0.301371 8.24348 0.308353 8.24545C0.315382 8.24743 0.324928 8.24981 0.336395 8.25169C0.347938 8.2536 0.362035 8.25511 0.378122 8.25511V7.74159ZM0.519674 9.16403C0.533685 8.78263 0.571451 8.4074 0.631516 8.03975L0.124721 7.95695C0.0612117 8.34569 0.021308 8.74228 0.00650716 9.14517L0.519674 9.16403ZM0.515768 9.29665C0.516751 9.25236 0.518054 9.20815 0.519675 9.16403L0.00650714 9.14517C0.00479482 9.19179 0.00341863 9.23848 0.00238063 9.28526L0.515768 9.29665ZM0.00238064 9.28526C0.000796139 9.35665 0 9.42823 0 9.5H0.513514C0.513514 9.43203 0.514268 9.36425 0.515768 9.29665L0.00238064 9.28526ZM0 9.5C0 12.3194 1.22847 14.8521 3.17852 16.5916L3.52034 16.2084C1.6749 14.5622 0.513514 12.1669 0.513514 9.5H0ZM4.44708 16.9324C4.1223 16.7112 3.81275 16.4692 3.52034 16.2084L3.17852 16.5916C3.48753 16.8672 3.81468 17.123 4.15798 17.3568L4.44708 16.9324ZM4.15798 17.3568C5.68024 18.3938 7.51971 19 9.5 19V18.4865C7.62607 18.4865 5.88681 17.9132 4.44708 16.9324L4.15798 17.3568ZM9.5 19C10.6314 19 11.7172 18.8021 12.7243 18.4388L12.55 17.9557C11.5981 18.2992 10.5712 18.4865 9.5 18.4865V19ZM13.6162 17.4905C13.2731 17.6677 12.9171 17.8233 12.55 17.9557L12.7243 18.4388C13.1125 18.2987 13.4889 18.1341 13.8517 17.9468L13.6162 17.4905ZM18.1682 11.8793C17.4992 14.3223 15.8244 16.3507 13.6162 17.4905L13.8517 17.9468C16.1855 16.7422 17.9559 14.5987 18.6635 12.0149L18.1682 11.8793ZM18.4035 10.7269C18.3498 11.1197 18.2709 11.5044 18.1682 11.8793L18.6635 12.0149C18.7721 11.6184 18.8556 11.2116 18.9123 10.7963L18.4035 10.7269ZM18.4865 9.5C18.4865 9.9163 18.4582 10.3259 18.4035 10.7269L18.9123 10.7963C18.9701 10.3724 19 9.9396 19 9.5H18.4865ZM16.481 3.84069C17.7351 5.38575 18.4865 7.35478 18.4865 9.5H19C19 7.23269 18.2054 5.15028 16.8797 3.51706L16.481 3.84069ZM15.7158 3.00989C15.9878 3.27046 16.2434 3.54796 16.481 3.84069L16.8797 3.51706C16.6286 3.2077 16.3584 2.91444 16.071 2.63907L15.7158 3.00989ZM9.5 0.513514C11.9119 0.513514 14.1014 1.46335 15.7158 3.00989L16.071 2.63907C14.3649 1.00463 12.0495 0 9.5 0V0.513514ZM13.6533 16.7392C15.6045 15.6173 17.0596 13.7291 17.6072 11.4843L17.1083 11.3626C16.5947 13.468 15.2293 15.2407 13.3973 16.294L13.6533 16.7392ZM11.6316 10.8909C12.3426 12.7087 12.8954 14.6057 13.2732 16.5652L13.7774 16.468C13.3937 14.4776 12.8321 12.5504 12.1098 10.7038L11.6316 10.8909ZM13.5439 10.3986C12.9589 10.3986 12.3853 10.4485 11.8273 10.5443L11.9142 11.0504C12.4436 10.9595 12.9881 10.9122 13.5439 10.9122V10.3986ZM17.4575 11.1868C16.2539 10.6792 14.9314 10.3986 13.5439 10.3986V10.9122C14.8616 10.9122 16.1164 11.1785 17.258 11.66L17.4575 11.1868ZM10.4947 11.1582C11.2458 13.0492 11.8192 15.0302 12.1942 17.0804L12.6993 16.9881C12.3182 14.9042 11.7354 12.8907 10.972 10.9687L10.4947 11.1582ZM4.99851 16.1763C6.17213 13.8487 8.26879 12.0662 10.8067 11.3095L10.66 10.8174C7.98483 11.615 5.77635 13.4931 4.53999 15.9451L4.99851 16.1763ZM9.5 17.3311C7.78938 17.3311 6.20755 16.7829 4.9196 15.8526L4.61891 16.2688C5.99145 17.2603 7.67787 17.8446 9.5 17.8446V17.3311ZM12.3531 16.7952C11.4694 17.1411 10.5072 17.3311 9.5 17.3311V17.8446C10.5723 17.8446 11.5979 17.6422 12.5403 17.2733L12.3531 16.7952ZM10.2086 9.74675C7.37129 10.6278 5.01639 12.6027 3.63633 15.1782L4.08896 15.4207C5.40622 12.9625 7.65416 11.0777 10.3609 10.2372L10.2086 9.74675ZM9.34502 8.60311C9.59251 9.09336 9.82757 9.59094 10.0498 10.0955L10.5197 9.88847C10.2939 9.37568 10.055 8.86995 9.80343 8.37169L9.34502 8.60311ZM3.72297 9.75676C5.80633 9.75676 7.80561 9.39441 9.66089 8.72909L9.48755 8.24572C7.6871 8.89138 5.74641 9.24324 3.72297 9.24324V9.75676ZM1.37968 9.60199C2.14639 9.70408 2.92859 9.75676 3.72297 9.75676V9.24324C2.95132 9.24324 2.19176 9.19207 1.44746 9.09297L1.37968 9.60199ZM1.66892 9.5C1.66892 9.45064 1.66938 9.40138 1.67029 9.35221L1.15686 9.34274C1.15589 9.39503 1.15541 9.44745 1.15541 9.5H1.66892ZM4.04163 15.1153C2.5778 13.6922 1.66892 11.7025 1.66892 9.5H1.15541C1.15541 11.8468 2.1245 13.9677 3.68367 15.4835L4.04163 15.1153Z" fill="#C42562"/>
</svg>
