<svg width="12" height="18" viewBox="0 0 12 18" fill="none" xmlns="http://www.w3.org/2000/svg">
<g clip-path="url(#clip0_25_10)">
<path d="M2.98487 18C4.63239 18 5.96975 16.6558 5.96975 14.9998V11.9995H2.98487C1.33735 11.9995 0 13.3437 0 14.9998C0 16.6558 1.33735 18 2.98487 18Z" fill="#0ACF83"/>
<path d="M0 8.99998C0 7.34398 1.33735 5.99974 2.98487 5.99974H5.96975V11.9995H2.98487C1.33735 12.0002 0 10.656 0 8.99998Z" fill="#A259FF"/>
<path d="M0 3.00024C0 1.34424 1.33735 0 2.98487 0H5.96975V5.99976H2.98487C1.33735 5.99976 0 4.65624 0 3.00024Z" fill="#F24E1E"/>
<path d="M5.96907 0H8.95394C10.6015 0 11.9388 1.34424 11.9388 3.00024C11.9388 4.65624 10.6015 5.99976 8.95394 5.99976H5.96907V0Z" fill="#FF7262"/>
<path d="M11.9388 8.99999C11.9388 10.656 10.6015 12.0002 8.95394 12.0002C7.30642 12.0002 5.96907 10.656 5.96907 8.99999C5.96907 7.34398 7.30642 5.99974 8.95394 5.99974C10.6015 5.99974 11.9388 7.34398 11.9388 8.99999Z" fill="#1ABCFE"/>
</g>
<defs>
<clipPath id="clip0_25_10">
<rect width="11.55" height="17.4138" fill="white" transform="scale(1.03366)"/>
</clipPath>
</defs>
</svg>
