<svg width="40" height="40" viewBox="0 0 40 40" fill="none" xmlns="http://www.w3.org/2000/svg">
<rect width="40" height="40" rx="10" fill="#837DFF"/>
<path fill-rule="evenodd" clip-rule="evenodd" d="M26.196 28.4913C24.489 27.4944 25.3785 25.242 26.5241 23.631C27.4535 22.3241 28 20.7259 28 19C28 14.5817 24.4183 11 20 11C15.5817 11 12 14.5817 12 19C12 23.4183 15.5817 27 20 27V27C20.4792 27 20.9353 27.2105 21.2755 27.548C22.6047 28.8671 24.6246 29.3803 26.5013 28.6982C26.5198 28.6915 26.521 28.6659 26.5034 28.6572C26.3991 28.6054 26.2966 28.55 26.196 28.4913Z" fill="white"/>
<path d="M26.5013 28.6982L26.6721 29.1681L26.6721 29.1681L26.5013 28.6982ZM26.5034 28.6572L26.281 29.105L26.281 29.105L26.5034 28.6572ZM21.2755 27.548L21.6277 27.1931L21.2755 27.548ZM27.5 19C27.5 20.6186 26.9878 22.1162 26.1166 23.3413L26.9316 23.9208C27.9192 22.532 28.5 20.8331 28.5 19H27.5ZM20 11.5C24.1421 11.5 27.5 14.8579 27.5 19H28.5C28.5 14.3056 24.6944 10.5 20 10.5V11.5ZM12.5 19C12.5 14.8579 15.8579 11.5 20 11.5V10.5C15.3056 10.5 11.5 14.3056 11.5 19H12.5ZM20 26.5C15.8579 26.5 12.5 23.1421 12.5 19H11.5C11.5 23.6944 15.3056 27.5 20 27.5V26.5ZM26.3305 28.2283C24.6424 28.8418 22.8247 28.381 21.6277 27.1931L20.9233 27.9029C22.3848 29.3532 24.6067 29.9187 26.6721 29.1681L26.3305 28.2283ZM26.281 29.105C25.9143 28.9228 25.926 28.3753 26.3305 28.2283L26.6721 29.1681C27.1136 29.0077 27.1278 28.409 26.7259 28.2094L26.281 29.105ZM25.9438 28.923C26.0542 28.9875 26.1666 29.0482 26.281 29.105L26.7259 28.2094C26.6317 28.1626 26.539 28.1126 26.4481 28.0595L25.9438 28.923ZM20 27.5C20.3317 27.5 20.6652 27.6468 20.9233 27.9029L21.6277 27.1931C21.2055 26.7742 20.6266 26.5 20 26.5V27.5ZM26.1166 23.3413C25.5243 24.1742 24.9678 25.2119 24.7975 26.2071C24.7114 26.7097 24.7192 27.2288 24.8968 27.7107C25.078 28.2022 25.4227 28.6187 25.9438 28.923L26.4481 28.0595C26.1158 27.8654 25.9315 27.6265 25.8351 27.365C25.7353 27.0939 25.717 26.7623 25.7831 26.3758C25.9172 25.5929 26.3783 24.6988 26.9316 23.9208L26.1166 23.3413Z" fill="white"/>
</svg>
