<svg width="15" height="16" viewBox="0 0 15 16" fill="none" xmlns="http://www.w3.org/2000/svg">
<path d="M14.3261 7.90849C14.3261 7.68343 14.2724 7.47224 14.1825 7.28029C13.5825 5.34467 10.7734 5.48606 6.77781 5.39165C6.10979 5.37599 6.4919 4.58715 6.72636 2.85556C6.87894 1.72935 6.15274 0 4.93213 0C2.91954 0 4.85561 1.58752 3.07615 5.51335C2.12534 7.61095 0 6.43597 0 8.54296V13.3391C0 14.1592 0.0805391 14.9476 1.23404 15.0774C2.35219 15.2031 2.10073 16 3.71375 16H11.7873C12.6097 16 13.2787 15.3306 13.2787 14.5082C13.2787 14.1673 13.1592 13.8568 12.9664 13.6053C13.4227 13.3498 13.7359 12.8675 13.7359 12.3082C13.7359 11.9681 13.6169 11.6576 13.4245 11.4066C13.8823 11.1515 14.1964 10.6687 14.1964 10.1086C14.1964 9.70183 14.0317 9.33314 13.7664 9.06334C14.1051 8.78995 14.3261 8.37652 14.3261 7.90849V7.90849Z" fill="#FFDB5E"/>
<path d="M8.98543 9.39968H12.8352C13.3587 9.39968 13.85 9.11959 14.1176 8.66902C14.2276 8.48333 14.1663 8.24305 13.9802 8.13254C13.7945 8.02202 13.5542 8.08421 13.4437 8.2699C13.3171 8.48422 13.0831 8.61667 12.8348 8.61667H8.89281C8.5022 8.61667 8.18452 8.29898 8.18452 7.90837C8.18452 7.51775 8.5022 7.20007 8.89281 7.20007H11.5269C11.743 7.20007 11.9184 7.02468 11.9184 6.80856C11.9184 6.59245 11.743 6.41705 11.5269 6.41705H8.89237C8.06997 6.41705 7.40105 7.08597 7.40105 7.90837C7.40105 8.36699 7.61358 8.77282 7.94021 9.04665C7.66504 9.31736 7.49367 9.6932 7.49367 10.1084C7.49367 10.5684 7.70755 10.9756 8.03597 11.249C7.76258 11.5192 7.593 11.8937 7.593 12.308C7.593 12.8092 7.84312 13.2512 8.22344 13.5219C7.98899 13.7855 7.84223 14.1287 7.84223 14.5081C7.84223 15.3305 8.51115 15.9994 9.33354 15.9994H11.7873C12.3108 15.9994 12.8025 15.7198 13.0701 15.2692C13.1806 15.0835 13.1193 14.8432 12.9336 14.7327C12.7475 14.6231 12.5072 14.6835 12.3972 14.8692C12.2696 15.0835 12.0356 15.2164 11.7873 15.2164H9.33354C8.94293 15.2164 8.62524 14.8987 8.62524 14.5081C8.62524 14.1175 8.94293 13.7998 9.33354 13.7998H12.2446C12.7681 13.7998 13.2603 13.5197 13.5274 13.0691C13.6379 12.883 13.5766 12.6427 13.3909 12.5327C13.2034 12.4203 12.9641 12.4834 12.8544 12.6691C12.7251 12.887 12.4969 13.0168 12.2446 13.0168H9.08432C8.6937 13.0168 8.37602 12.6987 8.37602 12.308C8.37602 11.9174 8.6937 11.5997 9.08432 11.5997H12.7046C13.2281 11.5997 13.7198 11.3201 13.9874 10.8695C14.0979 10.6838 14.0366 10.4436 13.8509 10.333C13.6643 10.223 13.4245 10.2838 13.3144 10.4695C13.1851 10.687 12.9569 10.8167 12.7046 10.8167H8.98543C8.59482 10.8167 8.27714 10.499 8.27714 10.1084C8.27714 9.71781 8.59437 9.39968 8.98543 9.39968V9.39968Z" fill="#EE9547"/>
</svg>
