<svg width="16" height="14" viewBox="0 0 16 14" fill="none" xmlns="http://www.w3.org/2000/svg">
<path fill-rule="evenodd" clip-rule="evenodd" d="M6.88348 1.67483C7.06365 1.85501 7.22149 2.04907 7.35699 2.25357C7.37018 2.27348 7.39835 2.2765 7.41524 2.2596V2.2596C7.42988 2.24497 7.45361 2.24497 7.46825 2.2596L7.74718 2.53853C7.97243 2.76379 8.36083 2.67621 8.51955 2.40001C8.67957 2.12155 8.87857 1.85938 9.11653 1.62141C10.5696 0.168323 12.9255 0.168323 14.3786 1.62141C15.8317 3.0745 15.8317 5.43042 14.3786 6.88351V6.88351C14.3638 6.89817 14.3638 6.92207 14.3785 6.9368L14.6183 7.17659C14.7647 7.32305 14.7647 7.5605 14.6183 7.70696L9.02533 13.2999C8.93935 13.3859 8.79994 13.3859 8.71396 13.2999V13.2999C8.62797 13.2139 8.48857 13.2139 8.40258 13.2999L8.37587 13.3266C8.27513 13.4274 8.11181 13.4274 8.01107 13.3266L2.20615 7.5217C2.19151 7.50706 2.19151 7.48333 2.20615 7.46869V7.46869C2.22304 7.4518 2.22003 7.42364 2.20011 7.41044C1.99561 7.27495 1.80156 7.11711 1.62138 6.93693C0.168291 5.48385 0.168291 3.12792 1.62138 1.67483C3.07447 0.221747 5.43039 0.221747 6.88348 1.67483Z" fill="white"/>
<path d="M9.11653 1.62141L8.74067 1.24555L9.11653 1.62141ZM9.02533 13.2999L9.4012 13.6758L9.02533 13.2999ZM14.6183 7.70696L14.2424 7.33109L14.6183 7.70696ZM7.74718 2.53853L8.12304 2.16267L7.74718 2.53853ZM8.51955 2.40001L8.05868 2.13516L8.51955 2.40001ZM2.20011 7.41044L1.90652 7.85355L2.20011 7.41044ZM7.46825 2.2596L7.09238 2.63547L7.46825 2.2596ZM8.37587 13.3266L8.75173 13.7025L8.37587 13.3266ZM7.35699 2.25357L6.91387 2.54716L7.35699 2.25357ZM7.8001 1.95997C7.6451 1.72604 7.46477 1.5044 7.25934 1.29897L6.50761 2.0507C6.66254 2.20563 6.79788 2.3721 6.91387 2.54716L7.8001 1.95997ZM8.12304 2.16267L7.84411 1.88374L7.09238 2.63547L7.37131 2.9144L8.12304 2.16267ZM8.74067 1.24555C8.4693 1.51691 8.24182 1.81648 8.05868 2.13516L8.98042 2.66486C9.11733 2.42662 9.28783 2.20184 9.4924 1.99727L8.74067 1.24555ZM14.7545 1.24555C13.0938 -0.415126 10.4013 -0.415125 8.74067 1.24555L9.4924 1.99727C10.7379 0.751771 12.7573 0.751771 14.0028 1.99727L14.7545 1.24555ZM14.7545 7.25937C16.4152 5.5987 16.4152 2.90622 14.7545 1.24555L14.0028 1.99727C15.2483 3.24278 15.2483 5.26214 14.0028 6.50765L14.7545 7.25937ZM14.9942 6.80073L14.7544 6.56094L14.0026 7.31266L14.2424 7.55246L14.9942 6.80073ZM9.4012 13.6758L14.9942 8.08282L14.2424 7.33109L8.64947 12.924L9.4012 13.6758ZM8.75173 13.7025L8.77845 13.6758L8.02672 12.924L8.00001 12.9508L8.75173 13.7025ZM1.83028 7.89757L7.63521 13.7025L8.38693 12.9508L2.58201 7.14584L1.83028 7.89757ZM1.24551 7.3128C1.45094 7.51822 1.67259 7.69856 1.90652 7.85355L2.49371 6.96733C2.31864 6.85134 2.15217 6.716 1.99724 6.56107L1.24551 7.3128ZM1.24551 1.29897C-0.415157 2.95964 -0.415157 5.65213 1.24551 7.3128L1.99724 6.56107C0.751739 5.31556 0.751739 3.2962 1.99724 2.0507L1.24551 1.29897ZM7.25934 1.29897C5.59867 -0.361702 2.90619 -0.361701 1.24551 1.29897L1.99724 2.0507C3.24275 0.805195 5.26211 0.805195 6.50761 2.0507L7.25934 1.29897ZM2.58201 7.14584C2.77496 7.33878 2.77496 7.65161 2.58201 7.84456L1.83028 7.09283C1.60806 7.31505 1.60806 7.67534 1.83028 7.89757L2.58201 7.14584ZM9.08982 12.924C8.79625 12.6305 8.32029 12.6305 8.02672 12.924L8.77845 13.6758C8.65685 13.7974 8.45969 13.7974 8.33809 13.6758L9.08982 12.924ZM8.64947 12.924C8.77107 12.8024 8.96822 12.8024 9.08982 12.924L8.33809 13.6758C8.63166 13.9693 9.10763 13.9693 9.4012 13.6758L8.64947 12.924ZM14.2424 7.55246C14.1813 7.49133 14.1813 7.39222 14.2424 7.33109L14.9942 8.08282C15.3482 7.72878 15.3482 7.15477 14.9942 6.80073L14.2424 7.55246ZM7.37131 2.9144C7.89268 3.43577 8.68325 3.18198 8.98042 2.66486L8.05868 2.13516C8.05978 2.13325 8.06037 2.13326 8.05897 2.13424C8.05714 2.13552 8.05573 2.13576 8.05668 2.13557C8.05776 2.13536 8.06586 2.13398 8.07978 2.13776C8.09536 2.14199 8.11138 2.151 8.12304 2.16267L7.37131 2.9144ZM14.0046 6.50578C13.7805 6.72772 13.7796 7.08962 14.0026 7.31266L14.7544 6.56094C14.9479 6.75452 14.9472 7.06862 14.7526 7.26124L14.0046 6.50578ZM2.58201 7.84456C2.83985 7.58672 2.78983 7.16353 2.49371 6.96733L1.90652 7.85355C1.65023 7.68374 1.60623 7.31689 1.83028 7.09283L2.58201 7.84456ZM7.7911 2.63547C7.59815 2.82841 7.28533 2.82841 7.09238 2.63547L7.84411 1.88374C7.62189 1.66152 7.2616 1.66152 7.03937 1.88374L7.7911 2.63547ZM8.00001 12.9508C8.10685 12.8439 8.28009 12.8439 8.38693 12.9508L7.63521 13.7025C7.94353 14.0108 8.44341 14.0108 8.75173 13.7025L8.00001 12.9508ZM6.91387 2.54716C7.11007 2.84328 7.53326 2.89331 7.7911 2.63547L7.03937 1.88374C7.26343 1.65968 7.63029 1.70368 7.8001 1.95997L6.91387 2.54716Z" fill="#596787"/>
</svg>
