<svg width="12" height="18" viewBox="0 0 12 18" fill="none" xmlns="http://www.w3.org/2000/svg">
<path d="M10.7004 8.63208C10.5639 8.49559 10.4044 8.38051 10.232 8.29165L10.0179 7.56584L5.72943 7.53587L5.5651 8.11984C5.31514 8.17069 5.0079 8.32805 4.81949 8.50415L2.88666 6.38774C2.44936 6.58257 2.14319 7.01934 2.14319 7.52944V8.04329L0.00214952 10.2732L0.0107136 11.4443L5.35475 17.1871C5.35475 17.1871 10.9846 9.00408 10.998 9.02014C10.93 8.90024 10.7245 8.64386 10.7004 8.63208V8.63208Z" fill="#EF9645"/>
<path d="M9.4104 8.08834H5.88786C5.77652 8.08834 5.66787 8.09958 5.56295 8.12099L5.52388 7.97219L3.77198 1.30071C3.77198 1.30071 3.54931 0.253208 4.59628 0.0310751C5.64324 -0.191593 5.86591 0.855375 5.86591 0.855375L7.52361 7.04779C7.76234 7.06064 7.99357 7.08152 8.22212 7.10507L9.3253 1.47842C9.3253 1.47842 9.42592 0.412715 10.4922 0.512809C11.5579 0.613438 11.4572 1.67914 11.4572 1.67914L10.3519 7.65317L10.2336 8.29227C9.98527 8.16649 9.70801 8.08834 9.4104 8.08834ZM1.02556 7.01782H1.11548C1.68232 7.01782 2.14104 7.47707 2.14104 8.04391V10.2738C2.14104 10.8406 1.68232 11.2999 1.11548 11.2999H1.02556C0.458718 11.2999 0 10.8406 0 10.2738V8.04391C0 7.47707 0.458718 7.01782 1.02556 7.01782ZM4.72848 8.60219L4.69851 8.63537C4.4448 8.91853 4.28208 9.28357 4.28208 9.69412C4.28208 9.72784 4.28904 9.75996 4.29171 9.79314C4.31526 10.156 4.45657 10.4847 4.68138 10.7427C4.64338 10.8117 4.59413 10.8728 4.54275 10.9316C4.34684 11.1548 4.06637 11.2999 3.74682 11.2999C3.15589 11.2999 2.6763 10.8203 2.6763 10.2294V7.01782C2.6763 6.78177 2.75498 6.56553 2.88451 6.38836C3.07935 6.12233 3.39141 5.9473 3.74682 5.9473C4.33774 5.9473 4.81734 6.42689 4.81734 7.01782V8.50477C4.78469 8.53421 4.75899 8.57061 4.72848 8.60219V8.60219Z" fill="#FFDC5D"/>
<path d="M1.10361 11.835C1.65171 11.835 2.13398 11.5535 2.415 11.1274C2.48083 11.2254 2.56005 11.3126 2.64569 11.3935C3.27997 11.9903 4.26967 11.9523 4.87612 11.3474C4.95748 11.2661 5.0383 11.1842 5.10039 11.0862L5.09879 11.0846C5.20637 11.1462 5.3525 11.2998 5.88776 11.2998H7.24571C7.04767 11.4491 6.86675 11.6333 6.69761 11.835C6.04031 12.6203 5.62013 13.7652 5.62013 15.0466C5.62013 15.1943 5.74003 15.3142 5.88776 15.3142C6.03549 15.3142 6.15539 15.1943 6.15539 15.0466C6.15539 13.6828 6.6671 12.4907 7.4277 11.835C7.81951 11.4973 8.27555 11.2998 8.76478 11.2998C9.14642 11.3421 9.21815 10.7645 8.83169 10.7645H5.88776C5.29683 10.7645 4.81724 10.2849 4.81724 9.69401C4.81724 9.10308 5.29683 8.62349 5.88776 8.62349H10.1698C10.6291 8.62349 11.0584 8.9425 11.1938 9.38088L11.7756 11.2998C11.8307 11.4791 12.032 12.3013 11.9956 12.4725C11.9956 15.0466 9.48203 17.7229 6.42302 17.7229C2.92403 17.7229 0.0834038 14.923 0.00739687 11.4422L0.0148905 11.4475C0.290549 11.6857 0.644356 11.835 1.03724 11.835H1.10361Z" fill="#FFDC5D"/>
</svg>
