<svg width="16" height="14" viewBox="0 0 16 14" fill="none" xmlns="http://www.w3.org/2000/svg">
<path fill-rule="evenodd" clip-rule="evenodd" d="M6.88348 1.67484C7.06365 1.85502 7.22149 2.04907 7.35698 2.25357C7.37018 2.27349 7.39834 2.2765 7.41524 2.25961V2.25961C7.42987 2.24497 7.45361 2.24497 7.46824 2.25961L7.74717 2.53854C7.97242 2.76378 8.36081 2.67621 8.51954 2.40002C8.67956 2.12156 8.87855 1.85938 9.11652 1.62141C10.5696 0.168323 12.9255 0.168323 14.3786 1.62141C15.8317 3.07451 15.8317 5.43043 14.3786 6.88352V6.88352C14.3638 6.89818 14.3638 6.92208 14.3785 6.93682L14.6183 7.17661C14.7647 7.32306 14.7647 7.56052 14.6183 7.70697L9.02531 13.2999C8.93933 13.3859 8.79993 13.3859 8.71395 13.2999V13.2999C8.62796 13.214 8.48856 13.214 8.40258 13.2999L8.37587 13.3267C8.27513 13.4274 8.11181 13.4274 8.01107 13.3267L2.20614 7.52172C2.1915 7.50708 2.1915 7.48335 2.20614 7.46871V7.46871C2.22303 7.45182 2.22001 7.42365 2.2001 7.41046C1.9956 7.27496 1.80154 7.11713 1.62137 6.93695C0.168275 5.48386 0.168275 3.12793 1.62137 1.67484C3.07446 0.221747 5.43038 0.221747 6.88348 1.67484Z" fill="white"/>
<path d="M9.11652 1.62141L8.74065 1.24555L9.11652 1.62141ZM9.02531 13.2999L9.40118 13.6758L9.02531 13.2999ZM14.6183 7.70697L14.9942 8.08284L14.6183 7.70697ZM7.74717 2.53854L8.12304 2.16267L7.74717 2.53854ZM8.51954 2.40002L8.05866 2.13516L8.51954 2.40002ZM2.2001 7.41046L1.9065 7.85357L2.2001 7.41046ZM7.46824 2.25961L7.09238 2.63547L7.46824 2.25961ZM8.37587 13.3267L8.75173 13.7025L8.37587 13.3267ZM7.35698 2.25357L7.8001 1.95998L7.35698 2.25357ZM7.8001 1.95998C7.6451 1.72605 7.46477 1.5044 7.25934 1.29897L6.50761 2.0507C6.66254 2.20563 6.79788 2.3721 6.91387 2.54717L7.8001 1.95998ZM8.12304 2.16267L7.84411 1.88374L7.09238 2.63547L7.37131 2.9144L8.12304 2.16267ZM8.74065 1.24555C8.46929 1.51691 8.2418 1.81649 8.05866 2.13516L8.98041 2.66487C9.11732 2.42662 9.28782 2.20184 9.49238 1.99728L8.74065 1.24555ZM14.7545 1.24555C13.0938 -0.415126 10.4013 -0.415126 8.74065 1.24555L9.49238 1.99728C10.7379 0.751773 12.7573 0.751773 14.0028 1.99728L14.7545 1.24555ZM14.7545 7.25939C16.4152 5.59871 16.4152 2.90623 14.7545 1.24555L14.0028 1.99728C15.2483 3.24279 15.2483 5.26215 14.0028 6.50766L14.7545 7.25939ZM14.9942 6.80074L14.7544 6.56095L14.0026 7.31268L14.2424 7.55247L14.9942 6.80074ZM9.40118 13.6758L14.9942 8.08284L14.2424 7.33111L8.64945 12.9241L9.40118 13.6758ZM8.75173 13.7025L8.77844 13.6758L8.02671 12.9241L8 12.9508L8.75173 13.7025ZM1.83027 7.89758L7.63521 13.7025L8.38694 12.9508L2.582 7.14585L1.83027 7.89758ZM1.2455 7.31281C1.45093 7.51824 1.67257 7.69857 1.9065 7.85357L2.4937 6.96734C2.31863 6.85135 2.15216 6.71601 1.99723 6.56108L1.2455 7.31281ZM1.2455 1.29897C-0.415175 2.95965 -0.415175 5.65214 1.2455 7.31281L1.99723 6.56108C0.751724 5.31558 0.751724 3.29621 1.99723 2.0507L1.2455 1.29897ZM7.25934 1.29897C5.59866 -0.361702 2.90618 -0.361702 1.2455 1.29897L1.99723 2.0507C3.24274 0.805196 5.2621 0.805196 6.50761 2.0507L7.25934 1.29897ZM2.582 7.14585C2.77495 7.3388 2.77495 7.65163 2.582 7.84457L1.83027 7.09284C1.60805 7.31507 1.60805 7.67536 1.83027 7.89758L2.582 7.14585ZM9.08981 12.9241C8.79624 12.6305 8.32028 12.6305 8.02671 12.9241L8.77844 13.6758C8.65684 13.7974 8.45968 13.7974 8.33808 13.6758L9.08981 12.9241ZM8.64945 12.9241C8.77105 12.8025 8.96821 12.8025 9.08981 12.9241L8.33808 13.6758C8.63165 13.9694 9.10761 13.9694 9.40118 13.6758L8.64945 12.9241ZM14.2424 7.55247C14.1813 7.49134 14.1813 7.39224 14.2424 7.33111L14.9942 8.08284C15.3482 7.7288 15.3482 7.15478 14.9942 6.80074L14.2424 7.55247ZM7.37131 2.9144C7.89267 3.43577 8.68323 3.18198 8.98041 2.66487L8.05866 2.13516C8.05976 2.13325 8.06036 2.13326 8.05896 2.13424C8.05713 2.13552 8.05572 2.13576 8.05667 2.13557C8.05775 2.13536 8.06585 2.13398 8.07977 2.13776C8.09536 2.14199 8.11137 2.151 8.12304 2.16267L7.37131 2.9144ZM14.0046 6.5058C13.7805 6.72773 13.7796 7.08964 14.0026 7.31268L14.7544 6.56095C14.9479 6.75453 14.9472 7.06863 14.7526 7.26125L14.0046 6.5058ZM2.582 7.84457C2.83984 7.58673 2.78981 7.16354 2.4937 6.96734L1.9065 7.85357C1.65021 7.68376 1.60621 7.3169 1.83027 7.09284L2.582 7.84457ZM7.7911 2.63547C7.59815 2.82842 7.28533 2.82842 7.09238 2.63547L7.84411 1.88374C7.62189 1.66152 7.26159 1.66152 7.03937 1.88374L7.7911 2.63547ZM8 12.9508C8.10685 12.8439 8.28009 12.8439 8.38694 12.9508L7.63521 13.7025C7.94353 14.0108 8.44341 14.0108 8.75173 13.7025L8 12.9508ZM6.91387 2.54717C7.11007 2.84329 7.53326 2.89331 7.7911 2.63547L7.03937 1.88374C7.26343 1.65969 7.63029 1.70369 7.8001 1.95998L6.91387 2.54717Z" fill="#596787"/>
</svg>
