<svg width="22" height="22" viewBox="0 0 22 22" fill="none" xmlns="http://www.w3.org/2000/svg">
<circle cx="11" cy="11" r="10.5" fill="#F18303" stroke="#F18303"/>
<path d="M7.00775 13.4692C6.58718 13.8898 6.58718 14.5717 7.00775 14.9922C7.42831 15.4128 8.11018 15.4128 8.53074 14.9922L11.0001 12.5229L13.4696 14.9924C13.8902 15.413 14.572 15.413 14.9926 14.9924C15.4132 14.5719 15.4132 13.89 14.9926 13.4694L12.5231 10.9999L14.9923 8.53068C15.4128 8.11012 15.4128 7.42825 14.9923 7.00768C14.5717 6.58712 13.8898 6.58712 13.4693 7.00768L11.0001 9.4769L8.53106 7.00789C8.1105 6.58733 7.42863 6.58733 7.00807 7.00789C6.5875 7.42845 6.5875 8.11032 7.00807 8.53089L9.47707 10.9999L7.00775 13.4692Z" fill="#292F3F"/>
</svg>
