<svg width="40" height="40" viewBox="0 0 40 40" fill="none" xmlns="http://www.w3.org/2000/svg">
<rect width="40" height="40" rx="10" fill="#565E70"/>
<path fill-rule="evenodd" clip-rule="evenodd" d="M25.3173 19.8539C25.0333 21.1304 25.1977 22.5408 26.1223 23.4655L28.6066 25.9497C29.3877 26.7308 29.3876 27.9971 28.6066 28.7782C27.8256 29.5592 26.5592 29.5592 25.7782 28.7782L23.7287 26.7287C22.6937 25.6937 21.0722 25.6177 19.6818 26.0747C16.7318 27.0442 13.3561 26.3561 11.0104 24.0104C7.69095 20.691 7.69095 15.309 11.0104 11.9896C14.3299 8.67014 19.7118 8.67014 23.0312 11.9896C25.1655 14.1239 25.9275 17.1108 25.3173 19.8539ZM20.6066 21.5355C22.5592 19.5829 22.5592 16.4171 20.6066 14.4645C18.654 12.5118 15.4882 12.5118 13.5355 14.4645C11.5829 16.4171 11.5829 19.5829 13.5355 21.5355C15.4882 23.4882 18.654 23.4882 20.6066 21.5355Z" fill="white"/>
<path d="M26.1223 23.4655L26.4759 23.1119L26.1223 23.4655ZM25.3173 19.8539L25.8053 19.9625V19.9625L25.3173 19.8539ZM28.6066 25.9497L28.253 26.3033L28.6066 25.9497ZM28.6066 28.7782L28.9602 29.1317H28.9602L28.6066 28.7782ZM25.7782 28.7782L26.1317 28.4246L25.7782 28.7782ZM23.7287 26.7287L23.3751 27.0822H23.3751L23.7287 26.7287ZM19.6817 26.0747L19.8379 26.5497L19.6817 26.0747ZM11.0104 24.0104L10.6569 24.364L11.0104 24.0104ZM11.0104 11.9896L10.6569 11.636L11.0104 11.9896ZM23.0312 11.9896L22.6777 12.3431V12.3431L23.0312 11.9896ZM20.6066 14.4645L20.253 14.818L20.6066 14.4645ZM13.5355 21.5355L13.182 21.8891L13.5355 21.5355ZM26.4759 23.1119C25.7177 22.3537 25.542 21.1465 25.8053 19.9625L24.8292 19.7453C24.5247 21.1143 24.6777 22.728 25.7688 23.819L26.4759 23.1119ZM28.9602 25.5962L26.4759 23.1119L25.7688 23.819L28.253 26.3033L28.9602 25.5962ZM28.9602 29.1317C29.9365 28.1554 29.9365 26.5725 28.9602 25.5962L28.253 26.3033C28.8388 26.8891 28.8388 27.8388 28.253 28.4246L28.9602 29.1317ZM25.4246 29.1317C26.4009 30.108 27.9838 30.108 28.9602 29.1317L28.253 28.4246C27.6673 29.0104 26.7175 29.0104 26.1317 28.4246L25.4246 29.1317ZM23.3751 27.0822L25.4246 29.1317L26.1317 28.4246L24.0822 26.3751L23.3751 27.0822ZM19.8379 26.5497C21.1345 26.1236 22.527 26.2341 23.3751 27.0822L24.0822 26.3751C22.8604 25.1533 21.01 25.1118 19.5256 25.5997L19.8379 26.5497ZM10.6569 24.364C13.1411 26.8482 16.7157 27.5758 19.8379 26.5497L19.5256 25.5997C16.7479 26.5126 13.5712 25.8641 11.364 23.6569L10.6569 24.364ZM10.6569 11.636C7.14213 15.1508 7.14213 20.8492 10.6569 24.364L11.364 23.6569C8.23976 20.5327 8.23976 15.4673 11.364 12.3431L10.6569 11.636ZM23.3848 11.636C19.8701 8.12132 14.1716 8.12132 10.6569 11.636L11.364 12.3431C14.4882 9.21895 19.5535 9.21895 22.6777 12.3431L23.3848 11.636ZM25.8053 19.9625C26.4512 17.0595 25.645 13.8963 23.3848 11.636L22.6777 12.3431C24.686 14.3515 25.4039 17.1621 24.8292 19.7453L25.8053 19.9625ZM20.253 14.818C22.0104 16.5754 22.0104 19.4246 20.253 21.182L20.9602 21.8891C23.108 19.7412 23.108 16.2588 20.9602 14.1109L20.253 14.818ZM13.8891 14.818C15.6464 13.0607 18.4957 13.0607 20.253 14.818L20.9602 14.1109C18.8123 11.963 15.3299 11.963 13.182 14.1109L13.8891 14.818ZM13.8891 21.182C12.1317 19.4246 12.1317 16.5754 13.8891 14.818L13.182 14.1109C11.0341 16.2588 11.0341 19.7412 13.182 21.8891L13.8891 21.182ZM20.253 21.182C18.4957 22.9393 15.6464 22.9393 13.8891 21.182L13.182 21.8891C15.3299 24.037 18.8123 24.037 20.9602 21.8891L20.253 21.182Z" fill="white"/>
</svg>
