<svg width="16" height="14" viewBox="0 0 16 14" fill="none" xmlns="http://www.w3.org/2000/svg">
<path fill-rule="evenodd" clip-rule="evenodd" d="M6.88347 1.67484C7.06365 1.85501 7.22148 2.04907 7.35698 2.25357C7.37017 2.27348 7.39834 2.2765 7.41523 2.25961V2.25961C7.42987 2.24497 7.4536 2.24497 7.46824 2.25961L7.74717 2.53854C7.97242 2.76379 8.36082 2.67621 8.51954 2.40002C8.67957 2.12155 8.87856 1.85938 9.11653 1.62141C10.5696 0.168323 12.9255 0.168323 14.3786 1.62141C15.8317 3.0745 15.8317 5.43043 14.3786 6.88352V6.88352C14.3638 6.89817 14.3638 6.92208 14.3785 6.93681L14.6183 7.1766C14.7647 7.32306 14.7647 7.56051 14.6183 7.70696L9.02533 13.2999C8.93934 13.3859 8.79993 13.3859 8.71395 13.2999V13.2999C8.62797 13.2139 8.48856 13.2139 8.40257 13.2999L8.37586 13.3266C8.27513 13.4274 8.1118 13.4274 8.01106 13.3266L2.20613 7.52171C2.1915 7.50707 2.1915 7.48334 2.20613 7.4687V7.4687C2.22303 7.45181 2.22001 7.42364 2.2001 7.41045C1.9956 7.27495 1.80154 7.11712 1.62136 6.93694C0.168275 5.48385 0.168275 3.12793 1.62136 1.67484C3.07445 0.221747 5.43038 0.221747 6.88347 1.67484Z" fill="white"/>
<path d="M9.11653 1.62141L8.74066 1.24555L9.11653 1.62141ZM9.02533 13.2999L9.40119 13.6758L9.02533 13.2999ZM14.6183 7.70696L14.2424 7.3311L14.6183 7.70696ZM7.74717 2.53854L8.12303 2.16267L7.74717 2.53854ZM8.51954 2.40001L8.98041 2.66487L8.51954 2.40001ZM2.2001 7.41045L1.9065 7.85356L2.2001 7.41045ZM7.46824 2.25961L7.09237 2.63547L7.46824 2.25961ZM8.37586 13.3266L8.75173 13.7025L8.37586 13.3266ZM7.35698 2.25357L7.80009 1.95997L7.35698 2.25357ZM7.80009 1.95997C7.64509 1.72604 7.46476 1.5044 7.25933 1.29897L6.5076 2.0507C6.66253 2.20563 6.79787 2.3721 6.91386 2.54717L7.80009 1.95997ZM8.12303 2.16267L7.8441 1.88374L7.09237 2.63547L7.3713 2.9144L8.12303 2.16267ZM8.74066 1.24555C8.4693 1.51691 8.24181 1.81649 8.05867 2.13516L8.98041 2.66487C9.11733 2.42662 9.28783 2.20184 9.49239 1.99728L8.74066 1.24555ZM14.7545 1.24555C13.0938 -0.415126 10.4013 -0.415126 8.74066 1.24555L9.49239 1.99728C10.7379 0.751771 12.7573 0.751772 14.0028 1.99728L14.7545 1.24555ZM14.7545 7.25938C16.4152 5.59871 16.4152 2.90622 14.7545 1.24555L14.0028 1.99728C15.2483 3.24278 15.2483 5.26215 14.0028 6.50765L14.7545 7.25938ZM14.9942 6.80073L14.7544 6.56094L14.0026 7.31267L14.2424 7.55246L14.9942 6.80073ZM9.40119 13.6758L14.9942 8.08283L14.2424 7.3311L8.64946 12.9241L9.40119 13.6758ZM8.75173 13.7025L8.77844 13.6758L8.02671 12.9241L8 12.9508L8.75173 13.7025ZM1.83027 7.89757L7.6352 13.7025L8.38693 12.9508L2.582 7.14584L1.83027 7.89757ZM1.2455 7.31281C1.45093 7.51823 1.67257 7.69857 1.9065 7.85356L2.49369 6.96734C2.31863 6.85134 2.15216 6.716 1.99723 6.56108L1.2455 7.31281ZM1.2455 1.29897C-0.415174 2.95965 -0.415174 5.65213 1.2455 7.31281L1.99723 6.56108C0.751723 5.31557 0.751723 3.29621 1.99723 2.0507L1.2455 1.29897ZM7.25933 1.29897C5.59866 -0.361702 2.90617 -0.361702 1.2455 1.29897L1.99723 2.0507C3.24273 0.805196 5.2621 0.805196 6.5076 2.0507L7.25933 1.29897ZM2.582 7.14584C2.77494 7.33879 2.77494 7.65162 2.582 7.84457L1.83027 7.09284C1.60805 7.31506 1.60805 7.67535 1.83027 7.89757L2.582 7.14584ZM9.08981 12.9241C8.79625 12.6305 8.32028 12.6305 8.02671 12.9241L8.77844 13.6758C8.65684 13.7974 8.45969 13.7974 8.33808 13.6758L9.08981 12.9241ZM8.64946 12.9241C8.77106 12.8025 8.96821 12.8025 9.08981 12.9241L8.33808 13.6758C8.63165 13.9694 9.10762 13.9694 9.40119 13.6758L8.64946 12.9241ZM14.2424 7.55246C14.1813 7.49134 14.1813 7.39223 14.2424 7.3311L14.9942 8.08283C15.3482 7.72879 15.3482 7.15478 14.9942 6.80073L14.2424 7.55246ZM7.3713 2.9144C7.89267 3.43577 8.68324 3.18198 8.98041 2.66487L8.05867 2.13516C8.05977 2.13325 8.06037 2.13326 8.05896 2.13424C8.05713 2.13552 8.05572 2.13576 8.05668 2.13557C8.05775 2.13536 8.06585 2.13398 8.07977 2.13776C8.09536 2.14199 8.11137 2.15101 8.12303 2.16267L7.3713 2.9144ZM14.0046 6.50579C13.7805 6.72773 13.7796 7.08963 14.0026 7.31267L14.7544 6.56094C14.9479 6.75453 14.9472 7.06862 14.7526 7.26124L14.0046 6.50579ZM2.582 7.84457C2.83984 7.58672 2.78981 7.16354 2.49369 6.96734L1.9065 7.85356C1.65021 7.68375 1.60621 7.31689 1.83027 7.09284L2.582 7.84457ZM7.79109 2.63547C7.59815 2.82842 7.28532 2.82842 7.09237 2.63547L7.8441 1.88374C7.62188 1.66152 7.26159 1.66152 7.03936 1.88374L7.79109 2.63547ZM8 12.9508C8.10684 12.8439 8.28008 12.8439 8.38693 12.9508L7.6352 13.7025C7.94352 14.0108 8.44341 14.0108 8.75173 13.7025L8 12.9508ZM6.91386 2.54717C7.11006 2.84328 7.53325 2.89331 7.79109 2.63547L7.03936 1.88374C7.26342 1.65968 7.63028 1.70368 7.80009 1.95997L6.91386 2.54717Z" fill="#596787"/>
</svg>
