<svg width="15" height="15" viewBox="0 0 15 15" fill="none" xmlns="http://www.w3.org/2000/svg">
<path d="M7.5 15C11.6421 15 15 11.6421 15 7.5C15 3.35786 11.6421 0 7.5 0C3.35786 0 0 3.35786 0 7.5C0 11.6421 3.35786 15 7.5 15Z" fill="#FFCC4D"/>
<path d="M7.4997 8.7499C5.99012 8.7499 4.98845 8.57407 3.7497 8.33323C3.46678 8.27865 2.91637 8.33323 2.91637 9.16657C2.91637 10.8332 4.83095 12.9166 7.4997 12.9166C10.168 12.9166 12.083 10.8332 12.083 9.16657C12.083 8.33323 11.5326 8.27823 11.2497 8.33323C10.011 8.57407 9.00928 8.7499 7.4997 8.7499Z" fill="#664500"/>
<path d="M3.75 9.16663C3.75 9.16663 5 9.58329 7.5 9.58329C10 9.58329 11.25 9.16663 11.25 9.16663C11.25 9.16663 10.4167 10.8333 7.5 10.8333C4.58333 10.8333 3.75 9.16663 3.75 9.16663Z" fill="white"/>
<path d="M9.99986 7.08354C10.5752 7.08354 11.0415 6.43062 11.0415 5.6252C11.0415 4.81979 10.5752 4.16687 9.99986 4.16687C9.42456 4.16687 8.95819 4.81979 8.95819 5.6252C8.95819 6.43062 9.42456 7.08354 9.99986 7.08354Z" fill="#664500"/>
<path d="M4.99942 7.08354C5.57471 7.08354 6.04108 6.43062 6.04108 5.6252C6.04108 4.81979 5.57471 4.16687 4.99942 4.16687C4.42412 4.16687 3.95775 4.81979 3.95775 5.6252C3.95775 6.43062 4.42412 7.08354 4.99942 7.08354Z" fill="#664500"/>
</svg>
