<svg width="18" height="18" viewBox="0 0 18 18" fill="none" xmlns="http://www.w3.org/2000/svg">
<path d="M9 18C13.9706 18 18 13.9706 18 9C18 4.02944 13.9706 0 9 0C4.02944 0 0 4.02944 0 9C0 13.9706 4.02944 18 9 18Z" fill="#1769FF"/>
<path d="M6.35832 4.92192C6.7464 4.92192 7.10064 4.95648 7.42104 5.02488C7.74144 5.09328 8.01504 5.2056 8.24328 5.36184C8.47152 5.51808 8.64864 5.72544 8.77464 5.98464C8.90064 6.24384 8.96328 6.56352 8.96328 6.9444C8.96328 7.35552 8.86968 7.69824 8.6832 7.97256C8.49672 8.24688 8.22024 8.47152 7.8552 8.64648C8.35776 8.7912 8.73288 9.04464 8.98056 9.40608C9.22824 9.76752 9.35208 10.2038 9.35208 10.7143C9.35208 11.1254 9.27216 11.4818 9.11232 11.7828C8.95248 12.0838 8.7372 12.3293 8.46648 12.5194C8.19576 12.7102 7.8876 12.8506 7.54128 12.942C7.1928 13.0334 6.83352 13.0795 6.47352 13.0788H2.52V4.92192H6.35832ZM6.13008 8.22312C6.44976 8.22312 6.71256 8.1468 6.91848 7.99488C7.1244 7.84224 7.22736 7.59528 7.22664 7.25256C7.22664 7.06248 7.19208 6.90624 7.12368 6.78456C7.05528 6.66288 6.96384 6.56712 6.84936 6.49872C6.73488 6.43032 6.60384 6.3828 6.45552 6.35616C6.30288 6.32952 6.14808 6.31584 5.99256 6.31656H4.31424V8.22456L6.13008 8.22312ZM6.23304 11.6842C6.40224 11.6849 6.57072 11.6676 6.7356 11.633C6.89544 11.5985 7.03656 11.5416 7.15824 11.4617C7.27992 11.3818 7.37712 11.273 7.44984 11.1362C7.52184 10.9994 7.55856 10.8238 7.55856 10.6106C7.55856 10.1923 7.44048 9.8928 7.20432 9.71424C6.96816 9.53496 6.65568 9.44568 6.2676 9.44568H4.31424V11.6849L6.23304 11.6842ZM11.6086 11.5128C11.8519 11.749 12.2026 11.867 12.6598 11.867C12.9874 11.867 13.2689 11.785 13.505 11.6215C13.7412 11.4581 13.8859 11.2846 13.9392 11.1017H15.367C15.1387 11.8102 14.7881 12.3163 14.3158 12.6209C13.8434 12.9254 13.2725 13.0781 12.6022 13.0781C12.1378 13.0781 11.7187 13.0039 11.3458 12.8556C10.9728 12.7073 10.6567 12.4956 10.3975 12.2213C10.1383 11.947 9.93816 11.6201 9.79776 11.2392C9.65736 10.8583 9.5868 10.4393 9.5868 9.9828C9.5868 9.54144 9.6588 9.13032 9.80352 8.74944C9.94824 8.36856 10.1542 8.03952 10.4206 7.7616C10.687 7.48368 11.0052 7.2648 11.3746 7.10496C11.7439 6.94512 12.1536 6.8652 12.6029 6.8652C13.1054 6.8652 13.5432 6.9624 13.9169 7.1568C14.2898 7.3512 14.5966 7.61184 14.8363 7.93944C15.0761 8.26704 15.2496 8.64 15.3562 9.05904C15.4627 9.47808 15.5009 9.91584 15.4706 10.373H11.2097C11.232 10.8965 11.3652 11.2774 11.6086 11.5128ZM13.4424 8.406C13.248 8.19288 12.9528 8.08632 12.5568 8.08632C12.2976 8.08632 12.0823 8.13024 11.9117 8.21736C11.7403 8.3052 11.6035 8.4132 11.5006 8.5428C11.3976 8.6724 11.3256 8.8092 11.2838 8.95392C11.2421 9.09864 11.2169 9.22824 11.2097 9.342H13.8485C13.7714 8.9316 13.6361 8.61912 13.4424 8.406ZM10.9318 5.33592H14.2286V6.25032H10.9318V5.33592V5.33592Z" fill="white"/>
</svg>
