<svg width="16" height="14" viewBox="0 0 16 14" fill="none" xmlns="http://www.w3.org/2000/svg">
<path fill-rule="evenodd" clip-rule="evenodd" d="M6.88343 1.67483C7.06361 1.85501 7.22144 2.04907 7.35694 2.25356C7.37013 2.27348 7.3983 2.27649 7.41519 2.2596V2.2596C7.42983 2.24496 7.45356 2.24496 7.4682 2.2596L7.74714 2.53855C7.97241 2.76381 8.36083 2.67622 8.51956 2.40001C8.67959 2.12155 8.87858 1.85937 9.11655 1.62141C10.5696 0.168322 12.9255 0.168322 14.3786 1.62141C15.8317 3.07449 15.8317 5.43041 14.3786 6.8835V6.8835C14.3638 6.89815 14.3638 6.92206 14.3785 6.93679L14.6183 7.17658C14.7647 7.32303 14.7647 7.56049 14.6183 7.70694L9.02536 13.2999C8.93937 13.3859 8.79995 13.3859 8.71396 13.2999V13.2999C8.62796 13.2139 8.48854 13.2139 8.40255 13.2999L8.37584 13.3266C8.27509 13.4273 8.11175 13.4273 8.01101 13.3266L2.20611 7.52169C2.19147 7.50705 2.19147 7.48332 2.20611 7.46868V7.46868C2.223 7.45179 2.21999 7.42362 2.20007 7.41043C1.99558 7.27493 1.80152 7.1171 1.62134 6.93692C0.168258 5.48383 0.168258 3.12792 1.62134 1.67483C3.07443 0.221746 5.43035 0.221746 6.88343 1.67483Z" fill="white"/>
<path d="M9.11655 1.62141L8.74068 1.24554L9.11655 1.62141ZM9.02536 13.2999L9.40123 13.6757L9.02536 13.2999ZM14.6183 7.70694L14.2424 7.33108L14.6183 7.70694ZM2.20007 7.41043L2.49367 6.96731L2.20007 7.41043ZM7.35694 2.25356L6.91383 2.54716L7.35694 2.25356ZM7.80005 1.95997C7.64505 1.72604 7.46472 1.50439 7.25929 1.29897L6.50757 2.0507C6.6625 2.20562 6.79783 2.3721 6.91383 2.54716L7.80005 1.95997ZM8.12301 2.16268L7.84406 1.88374L7.09233 2.63546L7.37128 2.91441L8.12301 2.16268ZM8.74068 1.24554C8.46932 1.51691 8.24183 1.81648 8.05869 2.13516L8.98043 2.66486C9.11735 2.42662 9.28785 2.20184 9.49241 1.99727L8.74068 1.24554ZM14.7545 1.24554C13.0938 -0.415124 10.4014 -0.415124 8.74068 1.24554L9.49241 1.99727C10.7379 0.751769 12.7573 0.751769 14.0028 1.99727L14.7545 1.24554ZM14.7545 7.25936C16.4152 5.59869 16.4152 2.90621 14.7545 1.24554L14.0028 1.99727C15.2483 3.24277 15.2483 5.26213 14.0028 6.50763L14.7545 7.25936ZM14.9942 6.80071L14.7544 6.56092L14.0026 7.31265L14.2424 7.55244L14.9942 6.80071ZM9.40123 13.6757L14.9942 8.0828L14.2424 7.33108L8.6495 12.924L9.40123 13.6757ZM8.7517 13.7024L8.77841 13.6757L8.02669 12.924L7.99997 12.9507L8.7517 13.7024ZM1.83025 7.89755L7.63514 13.7024L8.38687 12.9507L2.58197 7.14582L1.83025 7.89755ZM1.24548 7.31278C1.45091 7.51821 1.67255 7.69854 1.90648 7.85354L2.49367 6.96731C2.31861 6.85132 2.15213 6.71598 1.99721 6.56106L1.24548 7.31278ZM1.24548 1.29897C-0.415189 2.95964 -0.415189 5.65211 1.24548 7.31278L1.99721 6.56106C0.751705 5.31555 0.751705 3.2962 1.99721 2.05069L1.24548 1.29897ZM7.25929 1.29897C5.59863 -0.361701 2.90615 -0.361701 1.24548 1.29897L1.99721 2.05069C3.24271 0.805193 5.26207 0.805193 6.50757 2.0507L7.25929 1.29897ZM2.58197 7.14582C2.77492 7.33877 2.77492 7.6516 2.58197 7.84454L1.83025 7.09281C1.60803 7.31504 1.60803 7.67533 1.83025 7.89755L2.58197 7.14582ZM9.08982 12.924C8.79624 12.6304 8.32026 12.6304 8.02669 12.924L8.77841 13.6757C8.65682 13.7973 8.45968 13.7973 8.33809 13.6757L9.08982 12.924ZM8.6495 12.924C8.77109 12.8024 8.96823 12.8024 9.08982 12.924L8.33809 13.6757C8.63167 13.9693 9.10765 13.9693 9.40123 13.6757L8.6495 12.924ZM14.2424 7.55244C14.1813 7.49131 14.1813 7.39221 14.2424 7.33108L14.9942 8.0828C15.3482 7.72877 15.3482 7.15475 14.9942 6.80071L14.2424 7.55244ZM7.37128 2.91441C7.89267 3.43579 8.68325 3.18199 8.98043 2.66486L8.05869 2.13516C8.05979 2.13325 8.06038 2.13327 8.05897 2.13425C8.05714 2.13553 8.05572 2.13577 8.05667 2.13559C8.05774 2.13538 8.06584 2.134 8.07976 2.13778C8.09534 2.142 8.11134 2.15102 8.12301 2.16268L7.37128 2.91441ZM14.0046 6.50577C13.7805 6.7277 13.7796 7.08961 14.0026 7.31265L14.7544 6.56092C14.9479 6.7545 14.9472 7.0686 14.7526 7.26122L14.0046 6.50577ZM2.58197 7.84454C2.83981 7.5867 2.78979 7.16352 2.49367 6.96731L1.90648 7.85354C1.65019 7.68373 1.60619 7.31687 1.83025 7.09281L2.58197 7.84454ZM7.79105 2.63546C7.59811 2.82841 7.28528 2.82841 7.09233 2.63546L7.84406 1.88374C7.62184 1.66151 7.26155 1.66151 7.03933 1.88374L7.79105 2.63546ZM7.99997 12.9507C8.10681 12.8439 8.28003 12.8439 8.38687 12.9507L7.63514 13.7024C7.94347 14.0108 8.44337 14.0108 8.7517 13.7024L7.99997 12.9507ZM6.91383 2.54716C7.11003 2.84328 7.53321 2.8933 7.79105 2.63546L7.03933 1.88374C7.26338 1.65968 7.63024 1.70368 7.80005 1.95997L6.91383 2.54716Z" fill="#596787"/>
</svg>
