<svg width="27" height="19" viewBox="0 0 27 19" fill="none" xmlns="http://www.w3.org/2000/svg">
<path d="M14.0981 18.6517L8.55944 18.5501C6.76557 18.5149 4.96764 18.5853 3.21033 18.2198C0.533747 17.6728 0.34556 14.9935 0.146542 12.7461C-0.126938 9.58621 -0.0213365 6.36943 0.494485 3.23659C0.785565 1.47928 1.93093 0.430035 3.70314 0.316311C9.68314 -0.097971 15.7024 -0.049232 21.6689 0.14437C22.2984 0.161971 22.9334 0.259449 23.5548 0.369112C26.6213 0.906595 26.6971 3.94331 26.8961 6.4994C27.0938 9.08122 27.0112 11.6766 26.6321 14.2421C26.3275 16.365 25.7467 18.1467 23.2908 18.3186C20.2148 18.5434 17.2093 18.7248 14.1252 18.6666C14.1238 18.6517 14.1062 18.6517 14.0981 18.6517ZM10.8421 13.2755C13.1599 11.9446 15.4343 10.6355 17.7386 9.31408C15.4154 7.98323 13.1463 6.67405 10.8421 5.35268V13.2755Z" fill="#FF0000"/>
</svg>
