<svg width="22" height="22" viewBox="0 0 22 22" fill="none" xmlns="http://www.w3.org/2000/svg">
<circle cx="11" cy="11" r="10.5" fill="white" stroke="white"/>
<path fill-rule="evenodd" clip-rule="evenodd" d="M10.2907 16.5935L6.48321 12.786C6.04409 12.3468 6.04409 11.6349 6.48321 11.1958C6.92233 10.7566 7.63429 10.7566 8.07341 11.1958L9.90627 13.0286L9.90627 6.89998C9.90627 6.24856 10.4343 5.72049 11.0858 5.72049C11.7372 5.72049 12.2652 6.24856 12.2652 6.89998L12.2652 13.03L14.0995 11.1958C14.5386 10.7566 15.2506 10.7566 15.6897 11.1958C16.1288 11.6349 16.1288 12.3468 15.6897 12.786L11.8826 16.593L11.8816 16.5941C11.4424 17.0332 10.7305 17.0332 10.2914 16.5941L10.2907 16.5935Z" fill="#292F3F"/>
</svg>
