<svg width="17" height="16" viewBox="0 0 17 16" fill="none" xmlns="http://www.w3.org/2000/svg">
<path d="M6.68949 7.25731L3.17594 2.77025L1.41444 7.25731H6.68949Z" fill="#F4900C"/>
<path d="M8.47063 1.79586L5.36457 7.65918H11.5762L8.47063 1.79586Z" fill="#F4900C"/>
<path d="M10.3108 7.25731L13.8244 2.77025L15.5859 7.25731H10.3108Z" fill="#F4900C"/>
<path d="M13.5494 6.36665L11.2863 0.845032L8.50346 6.36713L8.50015 6.36855L8.49683 6.36665L5.71402 0.844559L3.45085 6.36665C1.96762 4.30462 0.5871 2.98373 0.5871 2.98373C0.5871 2.98373 1.40112 8.99803 1.40112 14.7956H15.5992C15.5992 8.99803 16.4132 2.98373 16.4132 2.98373C16.4132 2.98373 15.0327 4.30462 13.5494 6.36665V6.36665Z" fill="#FFCC4D"/>
<path d="M15.5989 15.2682H1.40082C1.13957 15.2682 0.927549 15.0566 0.927549 14.7949C0.927549 14.5332 1.13957 14.3216 1.40082 14.3216H15.5989C15.8606 14.3216 16.0721 14.5332 16.0721 14.7949C16.0721 15.0566 15.8606 15.2682 15.5989 15.2682ZM15.5989 13.6183H1.40082C1.13957 13.6183 0.927549 13.4068 0.927549 13.1451C0.927549 12.8834 1.13957 12.6718 1.40082 12.6718H15.5989C15.8606 12.6718 16.0721 12.8834 16.0721 13.1451C16.0721 13.4068 15.8606 13.6183 15.5989 13.6183Z" fill="#FFAC33"/>
<path d="M15.5289 10.5288C16.048 10.5288 16.4688 10.108 16.4688 9.58885C16.4688 9.06976 16.048 8.64894 15.5289 8.64894C15.0098 8.64894 14.589 9.06976 14.589 9.58885C14.589 10.108 15.0098 10.5288 15.5289 10.5288Z" fill="#DD2E44"/>
<path d="M1.43004 10.5288C1.94913 10.5288 2.36995 10.108 2.36995 9.58885C2.36995 9.06976 1.94913 8.64894 1.43004 8.64894C0.910938 8.64894 0.490125 9.06976 0.490125 9.58885C0.490125 10.108 0.910938 10.5288 1.43004 10.5288Z" fill="#DD2E44"/>
<path d="M12.505 10.7307C13.1355 10.7307 13.6465 10.2196 13.6465 9.58919C13.6465 8.95874 13.1355 8.44767 12.505 8.44767C11.8746 8.44767 11.3635 8.95874 11.3635 9.58919C11.3635 10.2196 11.8746 10.7307 12.505 10.7307Z" fill="#981CEB"/>
<path d="M4.45368 10.7307C5.08413 10.7307 5.59521 10.2196 5.59521 9.58919C5.59521 8.95874 5.08413 8.44767 4.45368 8.44767C3.82324 8.44767 3.31216 8.95874 3.31216 9.58919C3.31216 10.2196 3.82324 10.7307 4.45368 10.7307Z" fill="#981CEB"/>
<path d="M8.47953 11.3347C9.4435 11.3347 10.2249 10.5532 10.2249 9.58925C10.2249 8.62528 9.4435 7.84383 8.47953 7.84383C7.51557 7.84383 6.73412 8.62528 6.73412 9.58925C6.73412 10.5532 7.51557 11.3347 8.47953 11.3347Z" fill="#5C913B"/>
<path d="M16.3341 3.64854C16.7019 3.64854 17 3.35041 17 2.98265C17 2.61489 16.7019 2.31677 16.3341 2.31677C15.9664 2.31677 15.6682 2.61489 15.6682 2.98265C15.6682 3.35041 15.9664 3.64854 16.3341 3.64854Z" fill="#FFCC4D"/>
<path d="M0.665888 3.64854C1.03365 3.64854 1.33178 3.35041 1.33178 2.98265C1.33178 2.61489 1.03365 2.31677 0.665888 2.31677C0.298128 2.31677 0 2.61489 0 2.98265C0 3.35041 0.298128 3.64854 0.665888 3.64854Z" fill="#FFCC4D"/>
<path d="M13.8242 3.33499C14.1358 3.33499 14.3883 3.08242 14.3883 2.77086C14.3883 2.4593 14.1358 2.20672 13.8242 2.20672C13.5126 2.20672 13.2601 2.4593 13.2601 2.77086C13.2601 3.08242 13.5126 3.33499 13.8242 3.33499Z" fill="#F4900C"/>
<path d="M3.17573 3.33499C3.4873 3.33499 3.73987 3.08242 3.73987 2.77086C3.73987 2.4593 3.4873 2.20672 3.17573 2.20672C2.86417 2.20672 2.6116 2.4593 2.6116 2.77086C2.6116 3.08242 2.86417 3.33499 3.17573 3.33499Z" fill="#F4900C"/>
<path d="M8.47062 2.63956C8.93692 2.63956 9.31493 2.26155 9.31493 1.79525C9.31493 1.32895 8.93692 0.950938 8.47062 0.950938C8.00432 0.950938 7.62631 1.32895 7.62631 1.79525C7.62631 2.26155 8.00432 2.63956 8.47062 2.63956Z" fill="#F4900C"/>
<path d="M11.286 1.68862C11.7523 1.68862 12.1303 1.31061 12.1303 0.844311C12.1303 0.378011 11.7523 0 11.286 0C10.8197 0 10.4417 0.378011 10.4417 0.844311C10.4417 1.31061 10.8197 1.68862 11.286 1.68862Z" fill="#FFCC4D"/>
<path d="M5.71393 1.68862C6.18023 1.68862 6.55824 1.31061 6.55824 0.844311C6.55824 0.378011 6.18023 0 5.71393 0C5.24763 0 4.86962 0.378011 4.86962 0.844311C4.86962 1.31061 5.24763 1.68862 5.71393 1.68862Z" fill="#FFCC4D"/>
</svg>
