<svg width="20" height="16" viewBox="0 0 20 16" fill="none" xmlns="http://www.w3.org/2000/svg">
<path fill-rule="evenodd" clip-rule="evenodd" d="M8.33364 1.85172C8.60039 2.11847 8.82739 2.40991 9.01463 2.7187C9.03726 2.75601 9.08896 2.76276 9.11982 2.7319V2.7319C9.14578 2.70594 9.18787 2.70594 9.21382 2.7319L9.67609 3.19417C9.95735 3.47543 10.4134 3.47543 10.6946 3.19417L11.6664 2.22242L11.849 2.03975C11.8505 2.03827 11.8529 2.03827 11.8544 2.03975V2.03975C11.8558 2.04117 11.8581 2.04122 11.8596 2.03989C13.6594 0.434714 16.4214 0.49556 18.1483 2.22242C19.8752 3.94929 19.936 6.71129 18.3308 8.5111C18.3295 8.5126 18.3295 8.51489 18.331 8.51631V8.51631C18.3324 8.51779 18.3324 8.52019 18.331 8.52167L18.1483 8.70435L16.8782 9.97441C16.7617 10.0909 16.7617 10.2798 16.8782 10.3963V10.3963C16.9947 10.5128 16.9947 10.7017 16.8782 10.8182L13.4881 14.2083C11.8971 15.7994 9.31745 15.7994 7.72639 14.2083L2.7319 9.21382C2.70594 9.18786 2.70594 9.14578 2.7319 9.11982V9.11982C2.76276 9.08896 2.75602 9.03725 2.7187 9.01463C2.40992 8.82738 2.11847 8.60039 1.85172 8.33364C0.0617854 6.54371 0.0617854 3.64165 1.85172 1.85172C3.64165 0.0617839 6.54371 0.061784 8.33364 1.85172Z" fill="#596787"/>
<path d="M11.6664 2.22242L11.3063 1.86232L11.6664 2.22242ZM18.1483 2.22242L18.5084 1.86232L18.1483 2.22242ZM18.1483 8.70435L18.5084 9.06445L18.1483 8.70435ZM2.7187 9.01463L2.45464 9.45009L2.7187 9.01463ZM18.3308 8.5111L17.9508 8.17213L18.3308 8.5111ZM11.8596 2.03989L12.1986 2.41996L11.8596 2.03989ZM9.67609 3.19417L10.0362 2.83406L9.67609 3.19417ZM10.6946 3.19417L10.3345 2.83406L10.6946 3.19417ZM9.21382 2.7319L9.57393 2.37179L9.21382 2.7319ZM11.849 2.03975L12.2091 2.39986L11.849 2.03975ZM16.8782 9.97441L16.5181 9.6143L16.8782 9.97441ZM9.01463 2.7187L9.45009 2.45464L9.01463 2.7187ZM9.45009 2.45464C9.24184 2.1112 8.9896 1.78746 8.69375 1.49161L7.97353 2.21182C8.21118 2.44947 8.41294 2.70862 8.57917 2.98276L9.45009 2.45464ZM10.0362 2.83406L9.57393 2.37179L8.85372 3.09201L9.31598 3.55427L10.0362 2.83406ZM11.0547 3.55427L12.0265 2.58253L11.3063 1.86232L10.3345 2.83406L11.0547 3.55427ZM12.0265 2.58253L12.2091 2.39986L11.4889 1.67964L11.3063 1.86232L12.0265 2.58253ZM12.1986 2.41996C13.7981 0.993441 16.2533 1.04766 17.7882 2.58253L18.5084 1.86232C16.5895 -0.0565427 13.5208 -0.124013 11.5206 1.65982L12.1986 2.41996ZM17.7882 2.58253C19.323 4.1174 19.3773 6.57264 17.9508 8.17213L18.7109 8.85006C20.4947 6.84993 20.4273 3.78118 18.5084 1.86232L17.7882 2.58253ZM17.9709 8.16156L17.7882 8.34424L18.5084 9.06445L18.6911 8.88178L17.9709 8.16156ZM17.7882 8.34424L16.5181 9.6143L17.2383 10.3345L18.5084 9.06445L17.7882 8.34424ZM13.8482 14.5684L17.2383 11.1783L16.5181 10.4581L13.128 13.8482L13.8482 14.5684ZM2.3718 9.57393L7.36629 14.5684L8.0865 13.8482L3.09201 8.85372L2.3718 9.57393ZM1.49161 8.69375C1.78746 8.9896 2.11121 9.24183 2.45464 9.45009L2.98276 8.57916C2.70862 8.41293 2.44947 8.21118 2.21183 7.97353L1.49161 8.69375ZM1.49161 1.49161C-0.497203 3.48043 -0.497203 6.70493 1.49161 8.69375L2.21183 7.97353C0.620774 6.38248 0.620774 3.80288 2.21183 2.21182L1.49161 1.49161ZM8.69375 1.49161C6.70493 -0.497204 3.48043 -0.497204 1.49161 1.49161L2.21183 2.21182C3.80288 0.620772 6.38248 0.620772 7.97353 2.21182L8.69375 1.49161ZM3.09201 9.47992C3.36134 9.21059 3.29658 8.76946 2.98276 8.57916L2.45464 9.45009C2.21545 9.30504 2.16418 8.96733 2.3718 8.75971L3.09201 9.47992ZM16.5181 10.7564C16.4357 10.674 16.4357 10.5405 16.5181 10.4581L17.2383 11.1783C17.5537 10.8629 17.5537 10.3516 17.2383 10.0362L16.5181 10.7564ZM17.9709 8.87642C17.7735 8.67902 17.7735 8.35897 17.9709 8.16156L18.6911 8.88178C18.8914 8.68142 18.8914 8.35657 18.6911 8.15621L17.9709 8.87642ZM17.9508 8.17213C17.7719 8.37269 17.7763 8.68182 17.9709 8.87642L18.6911 8.15621C18.8828 8.34797 18.8871 8.6525 18.7109 8.85006L17.9508 8.17213ZM11.4942 2.39981C11.6889 2.59448 11.998 2.59883 12.1986 2.41996L11.5206 1.65982C11.7182 1.48362 12.0228 1.48787 12.2146 1.67969L11.4942 2.39981ZM3.09201 8.85372C3.26493 9.02664 3.26493 9.307 3.09201 9.47992L2.3718 8.75971C2.14696 8.98455 2.14696 9.34909 2.3718 9.57393L3.09201 8.85372ZM9.31598 3.55427C9.79612 4.03442 10.5746 4.03442 11.0547 3.55427L10.3345 2.83406C10.2521 2.91644 10.1186 2.91644 10.0362 2.83406L9.31598 3.55427ZM13.128 13.8482C11.7358 15.2404 9.47867 15.2404 8.0865 13.8482L7.36629 14.5684C9.15622 16.3584 12.0583 16.3584 13.8482 14.5684L13.128 13.8482ZM9.47993 3.09201C9.307 3.26493 9.02664 3.26493 8.85372 3.09201L9.57393 2.37179C9.34909 2.14695 8.98455 2.14695 8.75971 2.3718L9.47993 3.09201ZM12.2091 2.39986C12.0117 2.59728 11.6916 2.59726 11.4942 2.39981L12.2146 1.67969C12.0142 1.47928 11.6893 1.47926 11.4889 1.67964L12.2091 2.39986ZM16.5181 9.6143C16.2027 9.92969 16.2027 10.441 16.5181 10.7564L17.2383 10.0362C17.3207 10.1186 17.3207 10.2521 17.2383 10.3345L16.5181 9.6143ZM8.57917 2.98276C8.76946 3.29658 9.2106 3.36134 9.47993 3.09201L8.75971 2.3718C8.96733 2.16418 9.30505 2.21545 9.45009 2.45464L8.57917 2.98276Z" fill="#596787"/>
</svg>
