<svg width="19" height="17" viewBox="0 0 19 17" fill="none" xmlns="http://www.w3.org/2000/svg">
<path fill-rule="evenodd" clip-rule="evenodd" d="M5.5 2.5C5.5 1.39543 6.39543 0.5 7.5 0.5H11.5C12.6046 0.5 13.5 1.39543 13.5 2.5C13.5 3.05228 13.9477 3.5 14.5 3.5C16.7091 3.5 18.5 5.29086 18.5 7.5V12.5C18.5 14.7091 16.7091 16.5 14.5 16.5H4.5C2.29086 16.5 0.5 14.7091 0.5 12.5V7.5C0.5 5.29086 2.29086 3.5 4.5 3.5C5.05228 3.5 5.5 3.05228 5.5 2.5ZM10 13.5C11.933 13.5 13.5 11.933 13.5 10C13.5 8.067 11.933 6.5 10 6.5C8.067 6.5 6.5 8.067 6.5 10C6.5 11.933 8.067 13.5 10 13.5Z" fill="white"/>
<path d="M7.5 0C6.11929 0 5 1.11929 5 2.5H6C6 1.67157 6.67157 1 7.5 1V0ZM11.5 0H7.5V1H11.5V0ZM14 2.5C14 1.11929 12.8807 0 11.5 0V1C12.3284 1 13 1.67157 13 2.5H14ZM14.5 3C14.2239 3 14 2.77614 14 2.5H13C13 3.32843 13.6716 4 14.5 4V3ZM19 7.5C19 5.01472 16.9853 3 14.5 3V4C16.433 4 18 5.567 18 7.5H19ZM19 12.5V7.5H18V12.5H19ZM14.5 17C16.9853 17 19 14.9853 19 12.5H18C18 14.433 16.433 16 14.5 16V17ZM4.5 17H14.5V16H4.5V17ZM0 12.5C0 14.9853 2.01472 17 4.5 17V16C2.567 16 1 14.433 1 12.5H0ZM0 7.5V12.5H1V7.5H0ZM4.5 3C2.01472 3 0 5.01472 0 7.5H1C1 5.567 2.567 4 4.5 4V3ZM5 2.5C5 2.77614 4.77614 3 4.5 3V4C5.32843 4 6 3.32843 6 2.5H5ZM13 10C13 11.6569 11.6569 13 10 13V14C12.2091 14 14 12.2091 14 10H13ZM10 7C11.6569 7 13 8.34315 13 10H14C14 7.79086 12.2091 6 10 6V7ZM7 10C7 8.34315 8.34315 7 10 7V6C7.79086 6 6 7.79086 6 10H7ZM10 13C8.34315 13 7 11.6569 7 10H6C6 12.2091 7.79086 14 10 14V13Z" fill="white"/>
</svg>
